<svg width="75" height="75" viewBox="0 0 75 75" fill="none" xmlns="http://www.w3.org/2000/svg">
<g clip-path="url(#clip0_2304_2890)">
<path d="M67.5229 68.1782L72.9795 75H50.8296C37.8584 75 27.6206 64.8516 26.7139 52.623C40.438 51.4043 51.4053 40.4385 52.6226 26.7129C64.8716 27.6182 74.9995 37.8867 74.9995 50.8301C74.9995 57.4014 72.2998 63.6123 67.5229 68.1782Z" fill="white" fill-opacity="0.2"/>
<path d="M24.1699 48.3398H2.02017L7.47729 41.5185C2.70044 36.9524 0 30.7415 0 24.1699C0 10.8426 10.8426 0 24.1699 0C37.4972 0 48.3398 10.8426 48.3398 24.1699C48.3398 37.4972 37.4972 48.3398 24.1699 48.3398Z" fill="white" fill-opacity="0.8"/>
</g>
<defs>
<clipPath id="clip0_2304_2890">
<rect width="75" height="75" fill="white"/>
</clipPath>
</defs>
</svg>
